<svg xmlns="http://www.w3.org/2000/svg" width="1200" height="800"><defs><linearGradient id="a" x1="0%" x2="100%" y1="0%" y2="100%"><stop offset="0%" style="stop-color:#000b18;stop-opacity:1"/><stop offset="100%" style="stop-color:#0d2e4e;stop-opacity:1"/></linearGradient></defs><rect width="100%" height="100%" fill="url(#a)"/><path fill="#fff" d="m600 400 50-30 50 30-50 30Zm50-30 20-20 10 20Zm0 60 20 20 10-20Z" opacity=".8"/><path fill="#fff" d="m300 200 30-15 30 15-30 15Zm500 400 30-15 30 15-30 15Z" opacity=".6"/><path fill="#fff" d="m200 500 30-15 30 15-30 15Zm700-200 30-15 30 15-30 15Z" opacity=".5"/></svg>